<?xml version="1.0" encoding="UTF-8" standalone="no"?>
<!-- Created with Inkscape (http://www.inkscape.org/) -->

<svg
   xmlns:ns0="http://www.iki.fi/pav/software/textext/"
   xmlns:dc="http://purl.org/dc/elements/1.1/"
   xmlns:cc="http://creativecommons.org/ns#"
   xmlns:rdf="http://www.w3.org/1999/02/22-rdf-syntax-ns#"
   xmlns:svg="http://www.w3.org/2000/svg"
   xmlns="http://www.w3.org/2000/svg"
   xmlns:xlink="http://www.w3.org/1999/xlink"
   xmlns:sodipodi="http://sodipodi.sourceforge.net/DTD/sodipodi-0.dtd"
   xmlns:inkscape="http://www.inkscape.org/namespaces/inkscape"
   width="59.594456"
   height="107.16246"
   viewBox="0 0 59.594461 107.16246"
   id="svg2"
   sodipodi:version="0.32"
   inkscape:version="0.48.4 r9939"
   sodipodi:docname="constrained-opt.pdf"
   inkscape:output_extension="org.inkscape.output.svg.inkscape"
   version="1.0">
  <sodipodi:namedview
     id="base"
     pagecolor="#ffffff"
     bordercolor="#666666"
     borderopacity="1.0"
     gridtolerance="10000"
     guidetolerance="10000"
     objecttolerance="10000"
     inkscape:pageopacity="0.0"
     inkscape:pageshadow="2"
     inkscape:zoom="5.5289542"
     inkscape:cx="-6.366127"
     inkscape:cy="48.975624"
     inkscape:document-units="px"
     inkscape:current-layer="layer1"
     inkscape:window-width="1215"
     inkscape:window-height="1000"
     inkscape:window-x="65"
     inkscape:window-y="24"
     showgrid="true"
     showguides="true"
     inkscape:grid-points="true"
     width="744.09449px"
     height="1052.3622px"
     inkscape:grid-bbox="false"
     inkscape:object-paths="false"
     inkscape:guide-bbox="true"
     inkscape:object-nodes="true"
     inkscape:snap-bbox="false"
     inkscape:snap-nodes="true"
     inkscape:snap-intersection-grid-guide="false"
     inkscape:snap-center="false"
     inkscape:snap-intersection-line-segments="false"
     inkscape:snap-global="true"
     inkscape:snap-guide="false"
     inkscape:window-maximized="1"
     fit-margin-top="0"
     fit-margin-left="0"
     fit-margin-right="0"
     fit-margin-bottom="0">
    <inkscape:grid
       snapvisiblegridlinesonly="true"
       id="GridFromPre046Settings"
       type="xygrid"
       originx="-549.97586px"
       originy="-549.96932px"
       spacingx="0.5px"
       spacingy="0.5px"
       color="#000002"
       empcolor="#000000"
       opacity="0.09411765"
       empopacity="0.09411765"
       empspacing="5"
       visible="true"
       enabled="true"
       dotted="false" />
    <inkscape:grid
       snapvisiblegridlinesonly="true"
       enabled="true"
       visible="true"
       id="grid3486"
       type="xygrid"
       originx="-549.97586px"
       originy="-549.96932px"
       spacingx="0.5px"
       spacingy="0.5px"
       color="#0000ff"
       empcolor="#0000ff"
       opacity="0.2"
       empopacity="0.4"
       empspacing="5" />
  </sodipodi:namedview>
  <defs
     id="defs4">
    <inkscape:path-effect
       effect="spiro"
       id="path-effect3926"
       is_visible="true" />
    <marker
       inkscape:stockid="Arrow2Sstart"
       orient="auto"
       refY="0"
       refX="0"
       id="Arrow2Sstart"
       style="overflow:visible">
      <path
         inkscape:connector-curvature="0"
         id="path11294"
         style="font-size:12px;fill-rule:evenodd;stroke-width:0.625;stroke-linejoin:round"
         d="M 8.7185878,4.0337352 -2.2072895,0.01601326 8.7185884,-4.0017078 c -1.7454984,2.3720609 -1.7354408,5.6174519 -6e-7,8.035443 z"
         transform="matrix(0.3,0,0,0.3,-0.69,0)" />
    </marker>
    <marker
       inkscape:stockid="Arrow1Send"
       orient="auto"
       refY="0"
       refX="0"
       id="Arrow1Send"
       style="overflow:visible">
      <path
         inkscape:connector-curvature="0"
         id="path11279"
         d="M 0,0 5,-5 -12.5,0 5,5 0,0 z"
         style="fill-rule:evenodd;stroke:#000000;stroke-width:1pt;marker-start:none"
         transform="matrix(-0.2,0,0,-0.2,-1.2,0)" />
    </marker>
    <marker
       style="overflow:visible"
       id="Arrow1Sstart"
       orient="auto"
       refY="0"
       inkscape:stockid="Arrow1Sstart"
       refX="0">
      <path
         inkscape:connector-curvature="0"
         style="fill-rule:evenodd;stroke:#000000;stroke-width:1pt;marker-start:none"
         id="path26586"
         d="M 0,0 5,-5 -12.5,0 5,5 0,0 z"
         transform="matrix(0.2,0,0,0.2,1.2,0)" />
    </marker>
    <marker
       style="overflow:visible"
       id="Tail"
       orient="auto"
       refY="0"
       inkscape:stockid="Tail"
       refX="0">
      <g
         id="g26610"
         transform="scale(-1.2,-1.2)">
        <path
           inkscape:connector-curvature="0"
           style="fill:none;stroke:#000000;stroke-width:0.80000001;stroke-linecap:round;marker-start:none;marker-end:none"
           id="path26612"
           d="M -3.8048674,-3.9585227 0.54352094,0" />
        <path
           inkscape:connector-curvature="0"
           style="fill:none;stroke:#000000;stroke-width:0.80000001;stroke-linecap:round;marker-start:none;marker-end:none"
           id="path26614"
           d="M -1.2866832,-3.9585227 3.0617053,0" />
        <path
           inkscape:connector-curvature="0"
           style="fill:none;stroke:#000000;stroke-width:0.80000001;stroke-linecap:round;marker-start:none;marker-end:none"
           id="path26616"
           d="M 1.3053582,-3.9585227 5.6537466,0" />
        <path
           inkscape:connector-curvature="0"
           style="fill:none;stroke:#000000;stroke-width:0.80000001;stroke-linecap:round;marker-start:none;marker-end:none"
           id="path26618"
           d="M -3.8048674,4.1775838 0.54352094,0.21974226" />
        <path
           inkscape:connector-curvature="0"
           style="fill:none;stroke:#000000;stroke-width:0.80000001;stroke-linecap:round;marker-start:none;marker-end:none"
           id="path26620"
           d="M -1.2866832,4.1775838 3.0617053,0.21974226" />
        <path
           inkscape:connector-curvature="0"
           style="fill:none;stroke:#000000;stroke-width:0.80000001;stroke-linecap:round;marker-start:none;marker-end:none"
           id="path26622"
           d="M 1.3053582,4.1775838 5.6537466,0.21974226" />
      </g>
    </marker>
    <marker
       style="overflow:visible"
       orient="auto"
       id="Arrow1Mstart"
       refY="0"
       inkscape:stockid="Arrow1Mstart"
       refX="0">
      <path
         inkscape:connector-curvature="0"
         style="fill-rule:evenodd;stroke:#000000;stroke-width:1pt;marker-start:none"
         transform="matrix(0.4,0,0,0.4,4,0)"
         d="M 0,0 5,-5 -12.5,0 5,5 0,0 z"
         id="path3913" />
    </marker>
    <marker
       style="overflow:visible"
       orient="auto"
       id="Arrow1Mend"
       refY="0"
       inkscape:stockid="Arrow1Mend"
       refX="0">
      <path
         inkscape:connector-curvature="0"
         style="fill-rule:evenodd;stroke:#000000;stroke-width:1pt;marker-start:none"
         transform="matrix(-0.4,0,0,-0.4,-4,0)"
         d="M 0,0 5,-5 -12.5,0 5,5 0,0 z"
         id="path3916" />
    </marker>
    <inkscape:perspective
       id="perspective3498"
       sodipodi:type="inkscape:persp3d"
       inkscape:vp_z="744.09448 : 526.18109 : 1"
       inkscape:vp_y="0 : 1000 : 0"
       inkscape:vp_x="0 : 526.18109 : 1"
       inkscape:persp3d-origin="372.04724 : 350.78739 : 1" />
    <marker
       style="overflow:visible"
       id="TriangleInM"
       orient="auto"
       refY="0"
       inkscape:stockid="TriangleInM"
       refX="0">
      <path
         inkscape:connector-curvature="0"
         style="fill-rule:evenodd;stroke:#000000;stroke-width:1pt;marker-start:none"
         id="path10454"
         d="m 5.77,0 -8.65,5 0,-10 8.65,5 z"
         transform="scale(-0.4,-0.4)" />
    </marker>
    <marker
       style="overflow:visible"
       id="TriangleOutM"
       orient="auto"
       refY="0"
       inkscape:stockid="TriangleOutM"
       refX="0">
      <path
         inkscape:connector-curvature="0"
         style="fill-rule:evenodd;stroke:#000000;stroke-width:1pt;marker-start:none"
         id="path10463"
         d="m 5.77,0 -8.65,5 0,-10 8.65,5 z"
         transform="scale(0.4,0.4)" />
    </marker>
    <marker
       style="overflow:visible"
       id="TriangleOutS"
       orient="auto"
       refY="0"
       inkscape:stockid="TriangleOutS"
       refX="0">
      <path
         inkscape:connector-curvature="0"
         style="fill-rule:evenodd;stroke:#000000;stroke-width:1pt;marker-start:none"
         id="path10466"
         d="m 5.77,0 -8.65,5 0,-10 8.65,5 z"
         transform="scale(0.2,0.2)" />
    </marker>
    <marker
       style="overflow:visible"
       id="TriangleInL"
       orient="auto"
       refY="0"
       inkscape:stockid="TriangleInL"
       refX="0">
      <path
         inkscape:connector-curvature="0"
         style="fill-rule:evenodd;stroke:#000000;stroke-width:1pt;marker-start:none"
         id="path20152"
         d="m 5.77,0 -8.65,5 0,-10 8.65,5 z"
         transform="scale(-0.8,-0.8)" />
    </marker>
    <marker
       style="overflow:visible"
       id="Arrow2Mend"
       orient="auto"
       refY="0"
       inkscape:stockid="Arrow2Mend"
       refX="0">
      <path
         inkscape:connector-curvature="0"
         style="font-size:12px;fill-rule:evenodd;stroke-width:0.625;stroke-linejoin:round"
         id="path20090"
         d="M 8.7185878,4.0337352 -2.2072895,0.01601326 8.7185884,-4.0017078 c -1.7454984,2.3720609 -1.7354408,5.6174519 -6e-7,8.035443 z"
         transform="scale(-0.6,-0.6)" />
    </marker>
    <marker
       style="overflow:visible"
       id="Scissors"
       orient="auto"
       refY="0"
       inkscape:stockid="Scissors"
       refX="0">
      <path
         inkscape:connector-curvature="0"
         style="marker-start:none"
         id="schere"
         d="M 9.0898857,-3.6061018 C 8.1198849,-4.7769976 6.3697607,-4.7358294 5.0623558,-4.2327734 l -8.2124046,3.0779029 c -2.3882933,-1.3067135 -4.7482873,-0.9325372 -4.7482873,-1.5687873 0,-0.4973164 0.4566662,-0.3883222 0.3883068,-1.6831941 -0.065635,-1.2432767 -1.3635771,-2.1630796 -2.5903987,-2.0816435 -1.227271,-0.00735 -2.499439,0.9331613 -2.510341,2.2300611 -0.09143,1.3063864 1.007209,2.5196896 2.306764,2.6052316 1.5223406,0.2266616 4.218258,-0.6955566 5.482945,1.57086006 -0.9422847,1.73825774 -2.6140244,1.74307674 -4.1255107,1.65607034 -1.2548743,-0.072235 -2.7620933,0.2873979 -3.3606483,1.5208605 -0.578367,1.1820862 -0.0112,2.8646022 1.316749,3.226412 1.3401912,0.4918277 3.1806689,-0.129711 3.4993722,-1.6707242 0.2456585,-1.187823 -0.5953659,-1.7459574 -0.2725074,-2.1771537 0.2436135,-0.32536 1.7907806,-0.1368452 4.5471053,-1.3748244 L 5.6763468,4.2330688 C 6.8000164,4.5467672 8.1730685,4.5362646 9.1684433,3.4313614 L -0.05164093,-0.05372222 9.0898857,-3.6061018 z m -18.3078016,-1.900504 c 1.294559,0.7227998 1.1888392,2.6835702 -0.1564272,3.0632889 -1.2165179,0.423661 -2.7710269,-0.7589694 -2.3831779,-2.0774648 0.227148,-1.0818519 1.653387,-1.480632 2.5396051,-0.9858241 z m 0.056264,8.0173649 c 1.3508301,0.4988648 1.1214429,2.7844356 -0.2522207,3.091609 -0.9110594,0.3163391 -2.2135494,-0.1387976 -2.3056964,-1.2121394 -0.177609,-1.305055 1.356085,-2.4841482 2.5579171,-1.8794696 z" />
    </marker>
    <marker
       style="overflow:visible"
       id="Torso"
       orient="auto"
       refY="0"
       inkscape:stockid="Torso"
       refX="0">
      <g
         id="g20213"
         transform="scale(0.7,0.7)">
        <path
           inkscape:connector-curvature="0"
           style="fill:none;stroke:#000000;stroke-width:1.25;marker-start:none;marker-mid:none;marker-end:none"
           id="path20215"
           d="m -4.7792281,-3.239542 c 2.350374,0.3659393 5.30026732,1.9375477 5.03715532,3.62748546 C -0.00518779,2.0778819 -2.2126741,2.6176539 -4.5630471,2.2517169 -6.9134221,1.8857769 -8.521035,0.75201414 -8.257922,-0.93792336 -7.994809,-2.6278615 -7.1296041,-3.6054813 -4.7792281,-3.239542 z" />
        <path
           inkscape:connector-curvature="0"
           style="fill:none;stroke:#000000;stroke-width:1pt;marker-end:none"
           id="path20217"
           d="M 4.4598789,0.08866574 C -2.5564571,-4.378332 5.2248769,-3.9061806 -0.84829578,-8.7197331" />
        <path
           inkscape:connector-curvature="0"
           style="fill:none;stroke:#000000;stroke-width:1pt;marker-start:none;marker-end:none"
           id="path20219"
           d="M 4.9298719,0.05752074 C -1.3872731,1.7494689 1.8027579,5.4782079 -4.9448731,7.5462725" />
        <rect
           style="fill-rule:evenodd;stroke-width:1pt;marker-end:none"
           id="rect20221"
           width="2.6366582"
           transform="matrix(0.527536,-0.849533,0.887668,0.460484,0,0)"
           y="-1.7408575"
           x="-10.391706"
           height="2.7608147" />
        <rect
           style="fill-rule:evenodd;stroke-width:1pt;marker-end:none"
           id="rect20223"
           width="2.7327356"
           transform="matrix(0.671205,-0.741272,0.790802,0.612072,0,0)"
           y="-7.9629307"
           x="4.9587269"
           height="2.8614161" />
        <path
           style="fill:#ff0000;fill-opacity:0.75;fill-rule:evenodd;stroke:#000000;stroke-width:1pt;marker-start:none;marker-end:none"
           id="path20225"
           sodipodi:cx="16.172634"
           sodipodi:cy="-28.685045"
           sodipodi:type="arc"
           d="m 16.779951,-28.685045 c 0,0.335412 -0.271905,0.607317 -0.607317,0.607317 -0.335412,0 -0.607317,-0.271905 -0.607317,-0.607317 0,-0.335412 0.271905,-0.607318 0.607317,-0.607318 0.335412,0 0.607317,0.271906 0.607317,0.607318 z"
           transform="matrix(0,-1.109517,1.109517,0,25.96648,19.71619)"
           sodipodi:rx="0.60731727"
           sodipodi:ry="0.60731727" />
        <path
           style="fill:#ff0000;fill-opacity:0.75;fill-rule:evenodd;stroke:#000000;stroke-width:1pt;marker-start:none;marker-end:none"
           id="path20227"
           sodipodi:cx="16.172634"
           sodipodi:cy="-28.685045"
           sodipodi:type="arc"
           d="m 16.779951,-28.685045 c 0,0.335412 -0.271905,0.607317 -0.607317,0.607317 -0.335412,0 -0.607317,-0.271905 -0.607317,-0.607317 0,-0.335412 0.271905,-0.607318 0.607317,-0.607318 0.335412,0 0.607317,0.271906 0.607317,0.607318 z"
           transform="matrix(0,-1.109517,1.109517,0,26.8245,16.99126)"
           sodipodi:rx="0.60731727"
           sodipodi:ry="0.60731727" />
      </g>
    </marker>
    <marker
       id="RazorWire"
       orient="auto"
       refY="0"
       inkscape:stockid="RazorWire"
       refX="0">
       style=&quot;overflow:visible&quot;&gt;
      <path
   inkscape:connector-curvature="0"
   style="fill:#808080;fill-opacity:1;fill-rule:evenodd;stroke:#000000;stroke-width:0.1pt"
   id="path20233"
   transform="scale(0.8,0.8)"
   d="m 0.02272727,-0.74009011 0,1.4375 -7.78124997,2.31250001 18.4374997,0 -7.1874997,-2.31250001 0,-1.4375 7.2499997,-2.15624999 -18.4687497,0 7.74999997,2.15624999 z" />
</marker>
    <marker
       style="overflow:visible"
       id="TriangleOutL"
       orient="auto"
       refY="0"
       inkscape:stockid="TriangleOutL"
       refX="0">
      <path
         inkscape:connector-curvature="0"
         style="fill-rule:evenodd;stroke:#000000;stroke-width:1pt;marker-start:none"
         id="path20161"
         d="m 5.77,0 -8.65,5 0,-10 8.65,5 z"
         transform="scale(0.8,0.8)" />
    </marker>
    <marker
       style="overflow:visible"
       id="Arrow2Lend"
       orient="auto"
       refY="0"
       inkscape:stockid="Arrow2Lend"
       refX="0">
      <path
         inkscape:connector-curvature="0"
         style="font-size:12px;fill-rule:evenodd;stroke-width:0.625;stroke-linejoin:round"
         id="path20084"
         d="M 8.7185878,4.0337352 -2.2072895,0.01601326 8.7185884,-4.0017078 c -1.7454984,2.3720609 -1.7354408,5.6174519 -6e-7,8.035443 z"
         transform="matrix(-1.1,0,0,-1.1,-1.1,0)" />
    </marker>
    <marker
       style="overflow:visible"
       id="Arrow2Send"
       orient="auto"
       refY="0"
       inkscape:stockid="Arrow2Send"
       refX="0">
      <path
         inkscape:connector-curvature="0"
         style="font-size:12px;fill-rule:evenodd;stroke-width:0.625;stroke-linejoin:round"
         id="path20096"
         d="M 8.7185878,4.0337352 -2.2072895,0.01601326 8.7185884,-4.0017078 c -1.7454984,2.3720609 -1.7354408,5.6174519 -6e-7,8.035443 z"
         transform="matrix(-0.3,0,0,-0.3,0.69,0)" />
    </marker>
    <marker
       style="overflow:visible"
       id="Arrow2Lstart"
       orient="auto"
       refY="0"
       inkscape:stockid="Arrow2Lstart"
       refX="0">
      <path
         inkscape:connector-curvature="0"
         style="font-size:12px;fill-rule:evenodd;stroke-width:0.625;stroke-linejoin:round"
         id="path20081"
         d="M 8.7185878,4.0337352 -2.2072895,0.01601326 8.7185884,-4.0017078 c -1.7454984,2.3720609 -1.7354408,5.6174519 -6e-7,8.035443 z"
         transform="matrix(1.1,0,0,1.1,1.1,0)" />
    </marker>
    <marker
       style="overflow:visible"
       id="Arrow1Lstart"
       orient="auto"
       refY="0"
       inkscape:stockid="Arrow1Lstart"
       refX="0">
      <path
         inkscape:connector-curvature="0"
         style="fill-rule:evenodd;stroke:#000000;stroke-width:1pt;marker-start:none"
         id="path20063"
         d="M 0,0 5,-5 -12.5,0 5,5 0,0 z"
         transform="matrix(0.8,0,0,0.8,10,0)" />
    </marker>
    <marker
       style="overflow:visible"
       id="Arrow1Lend"
       orient="auto"
       refY="0"
       inkscape:stockid="Arrow1Lend"
       refX="0">
      <path
         inkscape:connector-curvature="0"
         style="fill-rule:evenodd;stroke:#000000;stroke-width:1pt;marker-start:none"
         id="path20066"
         d="M 0,0 5,-5 -12.5,0 5,5 0,0 z"
         transform="matrix(-0.8,0,0,-0.8,-10,0)" />
    </marker>
    <marker
       inkscape:stockid="Arrow1Send"
       orient="auto"
       refY="0"
       refX="0"
       id="Arrow1Send-5"
       style="overflow:visible">
      <path
         inkscape:connector-curvature="0"
         id="path11279-7"
         d="M 0,0 5,-5 -12.5,0 5,5 0,0 z"
         style="fill-rule:evenodd;stroke:#000000;stroke-width:1pt;marker-start:none"
         transform="matrix(-0.2,0,0,-0.2,-1.2,0)" />
    </marker>
    <inkscape:path-effect
       effect="spiro"
       id="path-effect3926-2"
       is_visible="true" />
    <marker
       style="overflow:visible"
       id="TriangleOutM-9"
       orient="auto"
       refY="0"
       inkscape:stockid="TriangleOutM"
       refX="0">
      <path
         inkscape:connector-curvature="0"
         style="fill-rule:evenodd;stroke:#000000;stroke-width:1pt;marker-start:none"
         id="path10463-6"
         d="m 5.77,0 -8.65,5 0,-10 8.65,5 z"
         transform="scale(0.4,0.4)" />
    </marker>
    <marker
       style="overflow:visible"
       orient="auto"
       id="Arrow1Mend-4"
       refY="0"
       inkscape:stockid="Arrow1Mend"
       refX="0">
      <path
         inkscape:connector-curvature="0"
         style="fill-rule:evenodd;stroke:#000000;stroke-width:1pt;marker-start:none"
         transform="matrix(-0.4,0,0,-0.4,-4,0)"
         d="M 0,0 5,-5 -12.5,0 5,5 0,0 z"
         id="path3916-5" />
    </marker>
    <marker
       style="overflow:visible"
       orient="auto"
       id="marker4941"
       refY="0"
       inkscape:stockid="Arrow1Mend"
       refX="0">
      <path
         inkscape:connector-curvature="0"
         style="fill-rule:evenodd;stroke:#000000;stroke-width:1pt;marker-start:none"
         transform="matrix(-0.4,0,0,-0.4,-4,0)"
         d="M 0,0 5,-5 -12.5,0 5,5 0,0 z"
         id="path4943" />
    </marker>
    <marker
       style="overflow:visible"
       id="TriangleOutM-4"
       orient="auto"
       refY="0"
       inkscape:stockid="TriangleOutM"
       refX="0">
      <path
         inkscape:connector-curvature="0"
         style="fill-rule:evenodd;stroke:#000000;stroke-width:1pt;marker-start:none"
         id="path10463-69"
         d="m 5.77,0 -8.65,5 0,-10 8.65,5 z"
         transform="scale(0.4,0.4)" />
    </marker>
    <marker
       style="overflow:visible"
       id="TriangleInM-4"
       orient="auto"
       refY="0"
       inkscape:stockid="TriangleInM"
       refX="0">
      <path
         inkscape:connector-curvature="0"
         style="fill-rule:evenodd;stroke:#000000;stroke-width:1pt;marker-start:none"
         id="path10454-9"
         d="m 5.77,0 -8.65,5 0,-10 8.65,5 z"
         transform="scale(-0.4,-0.4)" />
    </marker>
    <marker
       refX="0"
       inkscape:stockid="Arrow1Lend"
       refY="0"
       orient="auto"
       id="Arrow1Lend-8"
       style="overflow:visible">
      <path
         transform="matrix(-0.8,0,0,-0.8,-10,0)"
         d="M 0,0 5,-5 -12.5,0 5,5 0,0 z"
         id="path20066-1"
         style="fill-rule:evenodd;stroke:#000000;stroke-width:1pt;marker-start:none"
         inkscape:connector-curvature="0" />
    </marker>
    <marker
       style="overflow:visible"
       orient="auto"
       id="marker4941-0"
       refY="0"
       inkscape:stockid="Arrow1Mend"
       refX="0">
      <path
         inkscape:connector-curvature="0"
         style="fill-rule:evenodd;stroke:#000000;stroke-width:1pt;marker-start:none"
         transform="matrix(-0.4,0,0,-0.4,-4,0)"
         d="M 0,0 5,-5 -12.5,0 5,5 0,0 z"
         id="path4943-7" />
    </marker>
    <marker
       style="overflow:visible"
       id="TriangleInM-3"
       orient="auto"
       refY="0"
       inkscape:stockid="TriangleInM"
       refX="0">
      <path
         inkscape:connector-curvature="0"
         style="fill-rule:evenodd;stroke:#000000;stroke-width:1pt;marker-start:none"
         id="path10454-1"
         d="m 5.77,0 -8.65,5 0,-10 8.65,5 z"
         transform="scale(-0.4,-0.4)" />
    </marker>
    <marker
       style="overflow:visible"
       orient="auto"
       id="Arrow1Mend-0"
       refY="0"
       inkscape:stockid="Arrow1Mend"
       refX="0">
      <path
         inkscape:connector-curvature="0"
         style="fill-rule:evenodd;stroke:#000000;stroke-width:1pt;marker-start:none"
         transform="matrix(-0.4,0,0,-0.4,-4,0)"
         d="M 0,0 5,-5 -12.5,0 5,5 0,0 z"
         id="path3916-2" />
    </marker>
    <marker
       style="overflow:visible"
       orient="auto"
       id="Arrow1Mend-1"
       refY="0"
       inkscape:stockid="Arrow1Mend"
       refX="0">
      <path
         inkscape:connector-curvature="0"
         style="fill-rule:evenodd;stroke:#000000;stroke-width:1pt;marker-start:none"
         transform="matrix(-0.4,0,0,-0.4,-4,0)"
         d="M 0,0 5,-5 -12.5,0 5,5 0,0 z"
         id="path3916-6" />
    </marker>
    <marker
       style="overflow:visible"
       orient="auto"
       id="Arrow1Mend-5"
       refY="0"
       inkscape:stockid="Arrow1Mend"
       refX="0">
      <path
         inkscape:connector-curvature="0"
         style="fill-rule:evenodd;stroke:#000000;stroke-width:1pt;marker-start:none"
         transform="matrix(-0.4,0,0,-0.4,-4,0)"
         d="M 0,0 5,-5 -12.5,0 5,5 0,0 z"
         id="path3916-59" />
    </marker>
    <marker
       style="overflow:visible"
       orient="auto"
       id="Arrow1Mend-40"
       refY="0"
       inkscape:stockid="Arrow1Mend"
       refX="0">
      <path
         inkscape:connector-curvature="0"
         style="fill-rule:evenodd;stroke:#000000;stroke-width:1pt;marker-start:none"
         transform="matrix(-0.4,0,0,-0.4,-4,0)"
         d="M 0,0 5,-5 -12.5,0 5,5 0,0 z"
         id="path3916-1" />
    </marker>
    <marker
       style="overflow:visible"
       orient="auto"
       id="Arrow1Mend-7"
       refY="0"
       inkscape:stockid="Arrow1Mend"
       refX="0">
      <path
         inkscape:connector-curvature="0"
         style="fill-rule:evenodd;stroke:#000000;stroke-width:1pt;marker-start:none"
         transform="matrix(-0.4,0,0,-0.4,-4,0)"
         d="M 0,0 5,-5 -12.5,0 5,5 0,0 z"
         id="path3916-51" />
    </marker>
    <marker
       style="overflow:visible"
       orient="auto"
       id="marker9992"
       refY="0"
       inkscape:stockid="Arrow1Mend"
       refX="0">
      <path
         inkscape:connector-curvature="0"
         style="fill-rule:evenodd;stroke:#000000;stroke-width:1pt;marker-start:none"
         transform="matrix(-0.4,0,0,-0.4,-4,0)"
         d="M 0,0 5,-5 -12.5,0 5,5 0,0 z"
         id="path9994" />
    </marker>
    <marker
       style="overflow:visible"
       orient="auto"
       id="marker4941-1"
       refY="0"
       inkscape:stockid="Arrow1Mend"
       refX="0">
      <path
         inkscape:connector-curvature="0"
         style="fill-rule:evenodd;stroke:#000000;stroke-width:1pt;marker-start:none"
         transform="matrix(-0.4,0,0,-0.4,-4,0)"
         d="M 0,0 5,-5 -12.5,0 5,5 0,0 z"
         id="path4943-4" />
    </marker>
    <marker
       style="overflow:visible"
       id="TriangleInM-47"
       orient="auto"
       refY="0"
       inkscape:stockid="TriangleInM"
       refX="0">
      <path
         inkscape:connector-curvature="0"
         style="fill-rule:evenodd;stroke:#000000;stroke-width:1pt;marker-start:none"
         id="path10454-8"
         d="m 5.77,0 -8.65,5 0,-10 8.65,5 z"
         transform="scale(-0.4,-0.4)" />
    </marker>
    <marker
       style="overflow:visible"
       orient="auto"
       id="marker10000"
       refY="0"
       inkscape:stockid="Arrow1Mend"
       refX="0">
      <path
         inkscape:connector-curvature="0"
         style="fill-rule:evenodd;stroke:#000000;stroke-width:1pt;marker-start:none"
         transform="matrix(-0.4,0,0,-0.4,-4,0)"
         d="M 0,0 5,-5 -12.5,0 5,5 0,0 z"
         id="path10002" />
    </marker>
    <marker
       style="overflow:visible"
       orient="auto"
       id="marker10004"
       refY="0"
       inkscape:stockid="Arrow1Mend"
       refX="0">
      <path
         inkscape:connector-curvature="0"
         style="fill-rule:evenodd;stroke:#000000;stroke-width:1pt;marker-start:none"
         transform="matrix(-0.4,0,0,-0.4,-4,0)"
         d="M 0,0 5,-5 -12.5,0 5,5 0,0 z"
         id="path10006" />
    </marker>
    <marker
       style="overflow:visible"
       id="TriangleOutM-7"
       orient="auto"
       refY="0"
       inkscape:stockid="TriangleOutM"
       refX="0">
      <path
         inkscape:connector-curvature="0"
         style="fill-rule:evenodd;stroke:#000000;stroke-width:1pt;marker-start:none"
         id="path10463-9"
         d="m 5.77,0 -8.65,5 0,-10 8.65,5 z"
         transform="scale(0.4,0.4)" />
    </marker>
    <marker
       style="overflow:visible"
       orient="auto"
       id="Arrow1Mend-2"
       refY="0"
       inkscape:stockid="Arrow1Mend"
       refX="0">
      <path
         inkscape:connector-curvature="0"
         style="fill-rule:evenodd;stroke:#000000;stroke-width:1pt;marker-start:none"
         transform="matrix(-0.4,0,0,-0.4,-4,0)"
         d="M 0,0 5,-5 -12.5,0 5,5 0,0 z"
         id="path3916-8" />
    </marker>
    <marker
       refX="0"
       inkscape:stockid="Arrow1Lend"
       refY="0"
       orient="auto"
       id="Arrow1Lend-4"
       style="overflow:visible">
      <path
         transform="matrix(-0.8,0,0,-0.8,-10,0)"
         d="M 0,0 5,-5 -12.5,0 5,5 0,0 z"
         id="path20066-7"
         style="fill-rule:evenodd;stroke:#000000;stroke-width:1pt;marker-start:none"
         inkscape:connector-curvature="0" />
    </marker>
    <marker
       style="overflow:visible"
       orient="auto"
       id="Arrow1Mend-2-1"
       refY="0"
       inkscape:stockid="Arrow1Mend"
       refX="0">
      <path
         inkscape:connector-curvature="0"
         style="fill-rule:evenodd;stroke:#000000;stroke-width:1pt;marker-start:none"
         transform="matrix(-0.4,0,0,-0.4,-4,0)"
         d="M 0,0 5,-5 -12.5,0 5,5 0,0 z"
         id="path3916-8-4" />
    </marker>
    <marker
       style="overflow:visible"
       orient="auto"
       id="Arrow1Mend-2-11"
       refY="0"
       inkscape:stockid="Arrow1Mend"
       refX="0">
      <path
         inkscape:connector-curvature="0"
         style="fill-rule:evenodd;stroke:#000000;stroke-width:1pt;marker-start:none"
         transform="matrix(-0.4,0,0,-0.4,-4,0)"
         d="M 0,0 5,-5 -12.5,0 5,5 0,0 z"
         id="path3916-8-3" />
    </marker>
    <marker
       style="overflow:visible"
       orient="auto"
       id="Arrow1Mend-2-5"
       refY="0"
       inkscape:stockid="Arrow1Mend"
       refX="0">
      <path
         inkscape:connector-curvature="0"
         style="fill-rule:evenodd;stroke:#000000;stroke-width:1pt;marker-start:none"
         transform="matrix(-0.4,0,0,-0.4,-4,0)"
         d="M 0,0 5,-5 -12.5,0 5,5 0,0 z"
         id="path3916-8-0" />
    </marker>
    <marker
       style="overflow:visible"
       orient="auto"
       id="marker10083"
       refY="0"
       inkscape:stockid="Arrow1Mend"
       refX="0">
      <path
         inkscape:connector-curvature="0"
         style="fill-rule:evenodd;stroke:#000000;stroke-width:1pt;marker-start:none"
         transform="matrix(-0.4,0,0,-0.4,-4,0)"
         d="M 0,0 5,-5 -12.5,0 5,5 0,0 z"
         id="path10085" />
    </marker>
    <marker
       style="overflow:visible"
       orient="auto"
       id="marker10087"
       refY="0"
       inkscape:stockid="Arrow1Mend"
       refX="0">
      <path
         inkscape:connector-curvature="0"
         style="fill-rule:evenodd;stroke:#000000;stroke-width:1pt;marker-start:none"
         transform="matrix(-0.4,0,0,-0.4,-4,0)"
         d="M 0,0 5,-5 -12.5,0 5,5 0,0 z"
         id="path10089" />
    </marker>
    <marker
       style="overflow:visible"
       id="Arrow1Lend-5"
       orient="auto"
       refY="0"
       inkscape:stockid="Arrow1Lend"
       refX="0">
      <path
         inkscape:connector-curvature="0"
         style="fill-rule:evenodd;stroke:#000000;stroke-width:1pt;marker-start:none"
         id="path20066-0"
         d="M 0,0 5,-5 -12.5,0 5,5 0,0 z"
         transform="matrix(-0.8,0,0,-0.8,-10,0)" />
    </marker>
    <marker
       style="overflow:visible"
       id="TriangleOutM-97"
       orient="auto"
       refY="0"
       inkscape:stockid="TriangleOutM"
       refX="0">
      <path
         inkscape:connector-curvature="0"
         style="fill-rule:evenodd;stroke:#000000;stroke-width:1pt;marker-start:none"
         id="path10463-97"
         d="m 5.77,0 -8.65,5 0,-10 8.65,5 z"
         transform="scale(0.4,0.4)" />
    </marker>
    <marker
       style="overflow:visible"
       orient="auto"
       id="Arrow1Mend-2-3"
       refY="0"
       inkscape:stockid="Arrow1Mend"
       refX="0">
      <path
         inkscape:connector-curvature="0"
         style="fill-rule:evenodd;stroke:#000000;stroke-width:1pt;marker-start:none"
         transform="matrix(-0.4,0,0,-0.4,-4,0)"
         d="M 0,0 5,-5 -12.5,0 5,5 0,0 z"
         id="path3916-8-37" />
    </marker>
    <marker
       style="overflow:visible"
       orient="auto"
       id="marker11158"
       refY="0"
       inkscape:stockid="Arrow1Mend"
       refX="0">
      <path
         inkscape:connector-curvature="0"
         style="fill-rule:evenodd;stroke:#000000;stroke-width:1pt;marker-start:none"
         transform="matrix(-0.4,0,0,-0.4,-4,0)"
         d="M 0,0 5,-5 -12.5,0 5,5 0,0 z"
         id="path11160" />
    </marker>
    <marker
       style="overflow:visible"
       orient="auto"
       id="marker11162"
       refY="0"
       inkscape:stockid="Arrow1Mend"
       refX="0">
      <path
         inkscape:connector-curvature="0"
         style="fill-rule:evenodd;stroke:#000000;stroke-width:1pt;marker-start:none"
         transform="matrix(-0.4,0,0,-0.4,-4,0)"
         d="M 0,0 5,-5 -12.5,0 5,5 0,0 z"
         id="path11164" />
    </marker>
    <marker
       style="overflow:visible"
       id="Arrow1Lend-1"
       orient="auto"
       refY="0"
       inkscape:stockid="Arrow1Lend"
       refX="0">
      <path
         inkscape:connector-curvature="0"
         style="fill-rule:evenodd;stroke:#000000;stroke-width:1pt;marker-start:none"
         id="path20066-5"
         d="M 0,0 5,-5 -12.5,0 5,5 0,0 z"
         transform="matrix(-0.8,0,0,-0.8,-10,0)" />
    </marker>
    <marker
       style="overflow:visible"
       id="TriangleOutM-3"
       orient="auto"
       refY="0"
       inkscape:stockid="TriangleOutM"
       refX="0">
      <path
         inkscape:connector-curvature="0"
         style="fill-rule:evenodd;stroke:#000000;stroke-width:1pt;marker-start:none"
         id="path10463-4"
         d="m 5.77,0 -8.65,5 0,-10 8.65,5 z"
         transform="scale(0.4,0.4)" />
    </marker>
    <marker
       refX="0"
       inkscape:stockid="Arrow1Mend"
       refY="0"
       id="marker4941-7"
       orient="auto"
       style="overflow:visible">
      <path
         id="path4943-72"
         d="M 0,0 5,-5 -12.5,0 5,5 0,0 z"
         transform="matrix(-0.4,0,0,-0.4,-4,0)"
         style="fill-rule:evenodd;stroke:#000000;stroke-width:1pt;marker-start:none"
         inkscape:connector-curvature="0" />
    </marker>
    <marker
       refX="0"
       inkscape:stockid="Arrow1Mend"
       refY="0"
       id="marker4941-7-2"
       orient="auto"
       style="overflow:visible">
      <path
         id="path4943-72-6"
         d="M 0,0 5,-5 -12.5,0 5,5 0,0 z"
         transform="matrix(-0.4,0,0,-0.4,-4,0)"
         style="fill-rule:evenodd;stroke:#000000;stroke-width:1pt;marker-start:none"
         inkscape:connector-curvature="0" />
    </marker>
    <marker
       refX="0"
       inkscape:stockid="Arrow1Mend"
       refY="0"
       id="marker4941-7-0"
       orient="auto"
       style="overflow:visible">
      <path
         id="path4943-72-2"
         d="M 0,0 5,-5 -12.5,0 5,5 0,0 z"
         transform="matrix(-0.4,0,0,-0.4,-4,0)"
         style="fill-rule:evenodd;stroke:#000000;stroke-width:1pt;marker-start:none"
         inkscape:connector-curvature="0" />
    </marker>
    <marker
       refX="0"
       inkscape:stockid="Arrow1Mend"
       refY="0"
       id="marker4941-7-7"
       orient="auto"
       style="overflow:visible">
      <path
         id="path4943-72-7"
         d="M 0,0 5,-5 -12.5,0 5,5 0,0 z"
         transform="matrix(-0.4,0,0,-0.4,-4,0)"
         style="fill-rule:evenodd;stroke:#000000;stroke-width:1pt;marker-start:none"
         inkscape:connector-curvature="0" />
    </marker>
    <marker
       refX="0"
       inkscape:stockid="Arrow1Mend"
       refY="0"
       id="marker4941-7-09"
       orient="auto"
       style="overflow:visible">
      <path
         id="path4943-72-23"
         d="M 0,0 5,-5 -12.5,0 5,5 0,0 z"
         transform="matrix(-0.4,0,0,-0.4,-4,0)"
         style="fill-rule:evenodd;stroke:#000000;stroke-width:1pt;marker-start:none"
         inkscape:connector-curvature="0" />
    </marker>
    <marker
       refX="0"
       inkscape:stockid="Arrow1Mend"
       refY="0"
       id="marker4941-7-3"
       orient="auto"
       style="overflow:visible">
      <path
         id="path4943-72-3"
         d="M 0,0 5,-5 -12.5,0 5,5 0,0 z"
         transform="matrix(-0.4,0,0,-0.4,-4,0)"
         style="fill-rule:evenodd;stroke:#000000;stroke-width:1pt;marker-start:none"
         inkscape:connector-curvature="0" />
    </marker>
    <marker
       refX="0"
       inkscape:stockid="Arrow1Mend"
       refY="0"
       id="marker4941-7-6"
       orient="auto"
       style="overflow:visible">
      <path
         id="path4943-72-9"
         d="M 0,0 5,-5 -12.5,0 5,5 0,0 z"
         transform="matrix(-0.4,0,0,-0.4,-4,0)"
         style="fill-rule:evenodd;stroke:#000000;stroke-width:1pt;marker-start:none"
         inkscape:connector-curvature="0" />
    </marker>
    <marker
       refX="0"
       inkscape:stockid="Arrow1Mend"
       refY="0"
       id="marker4941-7-4"
       orient="auto"
       style="overflow:visible">
      <path
         id="path4943-72-31"
         d="M 0,0 5,-5 -12.5,0 5,5 0,0 z"
         transform="matrix(-0.4,0,0,-0.4,-4,0)"
         style="fill-rule:evenodd;stroke:#000000;stroke-width:1pt;marker-start:none"
         inkscape:connector-curvature="0" />
    </marker>
    <marker
       inkscape:stockid="Arrow1Send"
       orient="auto"
       refY="0"
       refX="0"
       id="Arrow1Send-5-3"
       style="overflow:visible">
      <path
         inkscape:connector-curvature="0"
         id="path11279-7-1"
         d="M 0,0 5,-5 -12.5,0 5,5 0,0 z"
         style="fill-rule:evenodd;stroke:#000000;stroke-width:1pt;marker-start:none"
         transform="matrix(-0.2,0,0,-0.2,-1.2,0)" />
    </marker>
    <marker
       inkscape:stockid="Arrow1Send"
       orient="auto"
       refY="0"
       refX="0"
       id="Arrow1Send-5-38"
       style="overflow:visible">
      <path
         inkscape:connector-curvature="0"
         id="path11279-7-2"
         d="M 0,0 5,-5 -12.5,0 5,5 0,0 z"
         style="fill-rule:evenodd;stroke:#000000;stroke-width:1pt;marker-start:none"
         transform="matrix(-0.2,0,0,-0.2,-1.2,0)" />
    </marker>
    <marker
       inkscape:stockid="Arrow1Send"
       orient="auto"
       refY="0"
       refX="0"
       id="Arrow1Send-5-0"
       style="overflow:visible">
      <path
         inkscape:connector-curvature="0"
         id="path11279-7-5"
         d="M 0,0 5,-5 -12.5,0 5,5 0,0 z"
         style="fill-rule:evenodd;stroke:#000000;stroke-width:1pt;marker-start:none"
         transform="matrix(-0.2,0,0,-0.2,-1.2,0)" />
    </marker>
    <marker
       inkscape:stockid="Arrow2Sstart"
       orient="auto"
       refY="0"
       refX="0"
       id="Arrow2Sstart-2"
       style="overflow:visible">
      <path
         inkscape:connector-curvature="0"
         id="path11294-8"
         style="font-size:12px;fill-rule:evenodd;stroke-width:0.625;stroke-linejoin:round"
         d="M 8.7185878,4.0337352 -2.2072895,0.01601326 8.7185884,-4.0017078 c -1.7454984,2.3720609 -1.7354408,5.6174519 -6e-7,8.035443 z"
         transform="matrix(0.3,0,0,0.3,-0.69,0)" />
    </marker>
    <marker
       inkscape:stockid="Arrow1Send"
       orient="auto"
       refY="0"
       refX="0"
       id="Arrow1Send-5-0-0"
       style="overflow:visible">
      <path
         inkscape:connector-curvature="0"
         id="path11279-7-5-1"
         d="M 0,0 5,-5 -12.5,0 5,5 0,0 z"
         style="fill-rule:evenodd;stroke:#000000;stroke-width:1pt;marker-start:none"
         transform="matrix(-0.2,0,0,-0.2,-1.2,0)" />
    </marker>
  </defs>
  <metadata
     id="metadata7">
    <rdf:RDF>
      <cc:Work
         rdf:about="">
        <dc:format>image/svg+xml</dc:format>
        <dc:type
           rdf:resource="http://purl.org/dc/dcmitype/StillImage" />
        <dc:title></dc:title>
      </cc:Work>
      <cc:Work
         rdf:about="">
        <dc:format>image/svg+xml</dc:format>
        <dc:type
           rdf:resource="http://purl.org/dc/dcmitype/StillImage" />
      </cc:Work>
    </rdf:RDF>
  </metadata>
  <g
     transform="translate(-549.97588,-395.2304)"
     inkscape:label="Layer 1"
     id="layer1"
     inkscape:groupmode="layer">
    <g
       id="g18556"
       transform="translate(437.15617,377.46049)"
       ns0:preamble=""
       ns0:text="$i_1$">
      <defs
         id="defs18558">
        <g
           id="g18560">
          <symbol
             id="symbol18562"
             overflow="visible"
             style="overflow:visible">
            <path
               id="path18564"
               d="m 2.828125,-6.234375 c 0,-0.203125 -0.140625,-0.359375 -0.359375,-0.359375 -0.28125,0 -0.546875,0.265625 -0.546875,0.53125 0,0.1875 0.140625,0.359375 0.375,0.359375 0.234375,0 0.53125,-0.234375 0.53125,-0.53125 z m -0.75,3.75 c 0.109375,-0.28125 0.109375,-0.3125 0.21875,-0.578125 0.078125,-0.203125 0.125,-0.34375 0.125,-0.53125 0,-0.4375 -0.3125,-0.8125 -0.8125,-0.8125 -0.9375,0 -1.3125,1.453125 -1.3125,1.53125 0,0.109375 0.09375,0.109375 0.109375,0.109375 0.109375,0 0.109375,-0.03125 0.15625,-0.1875 0.28125,-0.9375 0.671875,-1.234375 1.015625,-1.234375 0.078125,0 0.25,0 0.25,0.3125 0,0.21875 -0.078125,0.421875 -0.109375,0.53125 -0.078125,0.25 -0.53125,1.40625 -0.6875,1.84375 -0.109375,0.25 -0.234375,0.578125 -0.234375,0.796875 0,0.46875 0.34375,0.8125 0.8125,0.8125 0.9375,0 1.3125,-1.4375 1.3125,-1.53125 0,-0.109375 -0.09375,-0.109375 -0.125,-0.109375 -0.09375,0 -0.09375,0.03125 -0.140625,0.1875 -0.1875,0.625 -0.515625,1.234375 -1.015625,1.234375 -0.171875,0 -0.25,-0.09375 -0.25,-0.328125 0,-0.25 0.0625,-0.390625 0.296875,-1 z m 0,0"
               style="stroke:none"
               inkscape:connector-curvature="0" />
          </symbol>
          <symbol
             id="symbol18566"
             overflow="visible"
             style="overflow:visible">
            <path
               id="path18568"
               d="m 2.328125,-4.4375 c 0,-0.1875 0,-0.1875 -0.203125,-0.1875 -0.453125,0.4375 -1.078125,0.4375 -1.359375,0.4375 l 0,0.25 c 0.15625,0 0.625,0 1,-0.1875 l 0,3.546875 c 0,0.234375 0,0.328125 -0.6875,0.328125 l -0.265625,0 0,0.25 c 0.125,0 0.984375,-0.03125 1.234375,-0.03125 0.21875,0 1.09375,0.03125 1.25,0.03125 l 0,-0.25 -0.265625,0 c -0.703125,0 -0.703125,-0.09375 -0.703125,-0.328125 z m 0,0"
               style="stroke:none"
               inkscape:connector-curvature="0" />
          </symbol>
        </g>
      </defs>
      <g
         id="g18570">
        <g
           id="g18572"
           style="fill:#000000;fill-opacity:1">
          <use
             id="use18574"
             y="134.765"
             x="223.43201"
             xlink:href="#textext-2cd813ca-0"
             width="107.42738"
             height="117.68018" />
        </g>
        <g
           id="g18576"
           style="fill:#000000;fill-opacity:1">
          <use
             id="use18578"
             y="136.259"
             x="226.864"
             xlink:href="#textext-2cd813ca-1"
             width="107.42738"
             height="117.68018" />
        </g>
      </g>
    </g>
    <path
       sodipodi:type="arc"
       style="fill:#b6b4b8;fill-opacity:1;stroke:#cc002b;stroke-width:0.41084003;stroke-linecap:square;stroke-linejoin:round;stroke-miterlimit:4;stroke-opacity:0.52340423;stroke-dasharray:none;stroke-dashoffset:0"
       id="path5154-4"
       sodipodi:cx="29.947161"
       sodipodi:cy="33.659687"
       sodipodi:rx="21.25"
       sodipodi:ry="28.75"
       d="m 51.197161,33.659687 c 0,15.878187 -9.513949,28.75 -21.25,28.75 -11.736051,0 -21.2500003,-12.871813 -21.2500003,-28.75 0,-2.546726 0.2501097,-5.082162 0.7437634,-7.539751"
       transform="matrix(-1,0,0,1.4811345,609.75636,356.79326)"
       sodipodi:start="0"
       sodipodi:end="3.406948"
       sodipodi:open="true" />
    <path
       sodipodi:type="arc"
       style="fill:none;stroke:#0000ff;stroke-width:0.99919355;stroke-miterlimit:4;stroke-opacity:0.52340423;stroke-dasharray:none"
       id="path3225-9-9"
       sodipodi:cx="90"
       sodipodi:cy="16.249998"
       sodipodi:rx="7.5877867"
       sodipodi:ry="15"
       d="m 97.587787,16.249998 c 0,8.284271 -3.397168,15 -7.587787,15 -4.190619,0 -7.587787,-6.715729 -7.587787,-15 0,-8.2842712 3.397168,-14.9999999 7.587787,-14.9999999 4.190619,0 7.587787,6.7157287 7.587787,14.9999999 z"
       transform="matrix(0.26163142,0.40620705,-0.36020735,0.39783068,562.30018,417.03922)" />
    <path
       sodipodi:type="arc"
       style="fill:none;stroke:#3700d6;stroke-width:0.5463776;stroke-miterlimit:4;stroke-opacity:0.52340423;stroke-dasharray:none"
       id="path3225-9-8-6"
       sodipodi:cx="90"
       sodipodi:cy="16.249998"
       sodipodi:rx="7.5877867"
       sodipodi:ry="15"
       d="m 97.587787,16.249998 c 0,8.284271 -3.397168,15 -7.587787,15 -4.190619,0 -7.587787,-6.715729 -7.587787,-15 0,-8.2842712 3.397168,-14.9999999 7.587787,-14.9999999 4.190619,0 7.587787,6.7157287 7.587787,14.9999999 z"
       transform="matrix(0.47846103,0.74285514,-0.65873274,0.72753677,547.57165,381.16435)" />
    <path
       sodipodi:type="arc"
       style="fill:none;stroke:#5f00a1;stroke-width:0.33707362;stroke-miterlimit:4;stroke-opacity:0.52340423;stroke-dasharray:none"
       id="path3225-9-8-9-0"
       sodipodi:cx="90"
       sodipodi:cy="16.249998"
       sodipodi:rx="7.5877867"
       sodipodi:ry="15"
       d="m 97.587787,16.249998 c 0,8.284271 -3.397168,15 -7.587787,15 -4.190619,0 -7.587787,-6.715729 -7.587787,-15 0,-8.2842712 3.397168,-14.9999999 7.587787,-14.9999999 4.190619,0 7.587787,6.7157287 7.587787,14.9999999 z"
       transform="matrix(0.77555873,1.2041269,-1.0677691,1.1792966,527.62669,332.30876)" />
    <path
       sodipodi:type="arc"
       style="fill:none;stroke:#960066;stroke-width:0.2206956;stroke-miterlimit:4;stroke-opacity:0.52340423;stroke-dasharray:none"
       id="path3225-9-8-9-8-9"
       sodipodi:cx="90"
       sodipodi:cy="16.249998"
       sodipodi:rx="7.5877867"
       sodipodi:ry="15"
       d="m 97.587787,16.249998 c 0,8.284271 -3.397168,15 -7.587787,15 -4.190619,0 -7.587787,-6.715729 -7.587787,-15 0,-8.2842712 3.397168,-14.9999999 7.587787,-14.9999999 4.190619,0 7.587787,6.7157287 7.587787,14.9999999 z"
       transform="matrix(1.0920291,1.9948713,-1.5034773,1.9537351,505.8233,248.55714)" />
    <path
       sodipodi:type="arc"
       style="fill:none;stroke:#cc002b;stroke-width:0.17475042;stroke-miterlimit:4;stroke-opacity:0.52340423;stroke-dasharray:none"
       id="path3225-9-8-9-8-6-1"
       sodipodi:cx="90"
       sodipodi:cy="16.249998"
       sodipodi:rx="7.5877867"
       sodipodi:ry="15"
       d="m 97.587787,16.249998 c 0,8.284271 -3.397168,15 -7.587787,15 -4.190619,0 -7.587787,-6.715729 -7.587787,-15 0,-8.2842712 3.397168,-14.9999999 7.587787,-14.9999999 4.190619,0 7.587787,6.7157287 7.587787,14.9999999 z"
       transform="matrix(1.3426028,2.5879296,-1.8484607,2.534564,488.97634,185.24342)" />
    <path
       sodipodi:type="arc"
       style="fill:#000000;fill-opacity:1;stroke:none"
       id="path5156-9"
       sodipodi:cx="39.947159"
       sodipodi:cy="48.659687"
       sodipodi:rx="1.25"
       sodipodi:ry="1.25"
       d="m 41.197159,48.659687 c 0,0.690356 -0.559644,1.25 -1.25,1.25 -0.690356,0 -1.25,-0.559644 -1.25,-1.25 0,-0.690356 0.559644,-1.25 1.25,-1.25 0.690356,0 1.25,0.559644 1.25,1.25 z"
       transform="translate(544.0429,399.2942)" />
    <text
       xml:space="preserve"
       style="font-size:9.0000008px;font-style:normal;font-variant:normal;font-weight:normal;font-stretch:normal;line-height:125%;letter-spacing:0px;word-spacing:0px;fill:#000000;fill-opacity:1;stroke:none;font-family:cmmi10;-inkscape-font-specification:cmmi10;text-anchor:start;text-align:start;writing-mode:lr"
       x="21.703924"
       y="17.452909"
       id="text3153"
       sodipodi:linespacing="125%"
       transform="translate(549.97588,395.2304)"><tspan
         sodipodi:role="line"
         id="tspan3155"
         x="21.703924"
         y="17.452909">K</tspan></text>
    <text
       xml:space="preserve"
       style="font-size:40px;font-style:normal;font-weight:normal;line-height:125%;letter-spacing:0px;word-spacing:0px;fill:#000000;fill-opacity:1;stroke:none;font-family:Sans"
       x="32.917618"
       y="49.285332"
       id="text3157"
       sodipodi:linespacing="125%"
       transform="translate(549.97588,395.2304)"><tspan
         sodipodi:role="line"
         id="tspan3159"
         x="32.917618"
         y="49.285332" /></text>
    <text
       xml:space="preserve"
       style="font-size:9.0000008px;font-style:normal;font-variant:normal;font-weight:normal;font-stretch:normal;line-height:125%;letter-spacing:0px;word-spacing:0px;fill:#000000;fill-opacity:1;stroke:none;font-family:cmmi10;-inkscape-font-specification:cmmi10;text-anchor:start;text-align:start;writing-mode:lr"
       x="577.5"
       y="444.86218"
       id="text3153-3"
       sodipodi:linespacing="125%"><tspan
         sodipodi:role="line"
         id="tspan3155-5"
         x="577.5"
         y="444.86218">u</tspan></text>
  </g>
</svg>
